<?xml version="1.0" encoding="UTF-8" ?>
<!DOCTYPE svg PUBLIC "-//W3C//DTD SVG 1.1//EN" "http://www.w3.org/Graphics/SVG/1.1/DTD/svg11.dtd">
<svg width="500pt" height="400pt" viewBox="0 0 500 400" version="1.1" xmlns="http://www.w3.org/2000/svg">
<path fill="#ffffff" stroke="#ffffff" stroke-width="0.09375" d=" M 0.0 0.0 L 500.0 0.0 L 500.0 400.0 L 0.0 400.0 L 0.0 0.0 Z" />
<path fill="#000000" stroke="#000000" stroke-width="0.09375" d=" M 379.1 97.2 C 384.5 93.5 392.3 91.8 397.9 96.0 C 400.9 99.2 402.7 104.3 400.0 108.2 C 399.3 108.7 398.1 109.6 397.4 110.1 C 397.2 106.8 398.2 103.1 396.1 100.1 C 392.8 96.3 387.4 97.7 383.4 99.2 C 383.4 103.4 381.1 107.3 381.4 111.6 C 383.1 115.2 386.7 118.2 390.9 117.6 C 394.3 115.8 397.0 112.9 400.0 110.4 C 402.5 111.6 400.6 114.0 399.6 115.6 C 397.6 117.9 394.8 119.3 392.5 121.3 C 394.4 126.0 396.0 130.9 395.7 136.0 C 395.2 142.9 397.2 149.8 395.1 156.5 C 394.6 156.6 393.6 156.8 393.1 156.9 C 388.9 160.4 384.9 164.4 379.9 166.8 C 376.0 169.3 372.2 171.9 368.1 174.0 C 368.4 175.3 368.7 176.6 369.0 177.9 C 369.7 181.4 370.0 185.0 369.5 188.5 C 366.0 185.3 365.7 180.2 364.3 175.9 C 362.2 176.3 360.2 176.9 358.2 177.4 C 360.0 175.7 361.8 174.0 363.5 172.3 C 362.2 164.2 358.9 156.6 356.0 148.9 C 355.0 154.2 354.2 159.5 353.1 164.8 C 355.5 164.2 358.0 163.0 360.6 163.6 C 357.5 167.5 352.7 169.9 349.1 173.4 C 343.5 176.6 338.4 180.6 332.5 183.3 C 327.5 185.7 322.5 181.7 317.4 182.5 C 313.3 180.6 310.0 177.2 308.0 173.2 C 302.7 164.1 303.2 153.2 303.2 143.0 C 302.7 137.1 306.9 132.3 308.4 126.8 C 310.5 120.4 315.0 114.1 322.0 112.7 C 325.4 112.4 328.4 111.2 331.7 110.4 C 330.1 109.2 328.5 108.0 327.0 106.7 C 326.5 106.5 325.5 106.3 325.0 106.1 C 329.3 104.5 333.0 107.6 336.3 109.9 C 339.3 112.5 341.3 116.1 344.0 119.0 C 348.4 123.8 351.6 129.6 355.0 135.1 C 357.3 138.9 358.4 143.1 359.9 147.1 C 362.8 154.7 365.7 162.3 367.4 170.1 C 368.1 169.9 368.8 169.6 369.4 169.2 C 371.9 167.4 374.4 165.5 377.2 164.1 C 382.5 161.4 386.8 157.3 391.0 153.1 C 387.3 146.4 384.7 139.2 381.8 132.0 C 378.4 125.2 374.6 118.5 371.3 111.6 C 370.3 109.6 369.3 107.4 367.4 106.0 C 366.7 106.6 366.0 107.1 365.3 107.7 C 365.0 107.3 364.5 106.5 364.2 106.1 C 359.3 103.9 354.5 100.8 349.1 99.9 C 339.5 99.3 329.9 99.9 320.4 101.5 C 320.0 99.6 320.6 97.5 322.7 97.0 C 331.3 94.8 340.3 95.1 349.1 95.3 C 352.7 95.7 356.2 97.1 359.4 98.6 C 361.7 100.5 363.7 102.8 365.5 105.2 C 374.6 108.1 378.2 117.6 382.6 125.1 C 386.0 130.0 387.3 135.8 389.9 141.1 C 391.1 143.7 391.9 146.4 392.8 149.0 C 391.9 144.7 391.0 140.4 391.2 135.9 C 391.5 130.9 389.8 126.2 388.2 121.6 C 384.0 120.1 379.7 117.4 378.3 112.8 C 376.8 109.0 378.8 105.2 379.9 101.6 C 378.5 100.7 377.4 98.3 379.1 97.2 Z" />
<path fill="#ffffff" stroke="#ffffff" stroke-width="0.09375" d=" M 383.4 99.2 C 387.4 97.7 392.8 96.3 396.1 100.1 C 396.3 100.9 396.6 102.3 396.8 103.0 C 394.8 105.9 393.1 109.1 390.2 111.2 C 387.6 112.9 384.3 111.8 381.4 111.6 C 381.1 107.3 383.4 103.4 383.4 99.2 Z" />
<path fill="#9cd4be" stroke="#9cd4be" stroke-width="0.09375" d=" M 396.1 100.1 C 398.2 103.1 397.2 106.8 397.4 110.1 C 398.1 109.6 399.3 108.7 400.0 108.2 C 400.0 108.8 400.0 109.9 400.0 110.4 C 397.0 112.9 394.3 115.8 390.9 117.6 C 386.7 118.2 383.1 115.2 381.4 111.6 C 384.3 111.8 387.6 112.9 390.2 111.2 C 393.1 109.1 394.8 105.9 396.8 103.0 C 396.6 102.3 396.3 100.9 396.1 100.1 Z" />
<path fill="#000000" stroke="#000000" stroke-width="0.09375" d=" M 313.1 107.0 C 314.6 106.3 316.3 106.0 317.9 105.6 C 317.5 107.7 315.5 108.8 314.2 110.4 C 308.4 117.2 302.2 123.9 298.4 132.1 C 296.1 137.1 292.8 141.7 291.2 147.0 C 290.2 150.0 289.0 153.0 287.5 155.9 C 285.4 160.0 284.6 164.6 282.9 168.9 C 283.3 168.9 284.2 168.9 284.7 168.9 C 288.9 168.7 293.4 169.7 297.4 167.8 C 300.8 168.1 305.3 167.5 306.9 171.4 C 304.9 172.2 302.9 172.8 300.8 173.4 C 305.1 183.0 311.1 192.0 319.0 198.9 C 324.0 202.0 329.7 205.9 335.8 204.8 C 343.3 202.4 350.7 198.8 356.5 193.4 C 359.0 189.8 361.6 186.2 364.7 183.1 C 364.8 183.3 364.9 183.7 364.9 183.9 C 365.1 187.8 362.9 191.1 361.3 194.5 C 355.5 202.0 346.7 206.3 337.9 209.4 C 333.2 210.2 329.2 213.0 324.7 214.7 C 324.8 213.5 324.8 212.3 324.9 211.2 L 326.0 211.8 C 326.7 211.0 327.4 210.1 328.1 209.3 C 325.8 208.2 323.5 207.2 321.2 206.2 C 322.2 208.2 322.8 210.6 324.5 212.2 C 323.9 212.6 323.3 213.1 322.8 213.6 C 319.5 212.5 319.2 208.7 317.8 206.1 C 316.6 202.9 313.5 201.1 311.4 198.6 C 305.2 191.4 299.4 183.4 296.9 174.1 C 279.8 173.6 262.8 176.8 246.0 180.1 C 239.7 180.9 233.3 182.0 226.9 181.9 C 224.5 182.0 222.2 182.6 219.9 183.2 C 218.8 186.6 217.5 190.7 220.0 194.0 C 223.4 198.3 227.0 202.5 231.0 206.2 C 234.5 209.4 238.4 212.2 242.8 214.1 C 250.0 217.4 258.2 216.5 266.0 217.2 C 271.2 217.8 276.5 216.9 281.7 217.5 C 277.0 220.5 271.5 222.0 266.0 222.1 C 256.3 222.3 246.0 222.3 237.2 217.8 C 232.4 213.9 227.1 210.2 224.3 204.5 C 223.7 203.8 223.2 203.1 222.6 202.5 C 219.7 199.2 216.3 195.6 216.5 191.0 C 216.7 187.0 217.5 183.0 216.8 178.9 C 220.4 177.7 224.2 176.9 228.1 177.0 C 233.3 176.3 238.6 175.8 243.9 175.3 C 255.5 173.3 267.0 170.5 278.7 169.6 C 281.2 164.3 281.7 158.3 284.4 153.1 C 286.9 148.2 287.9 142.7 290.8 137.9 C 294.5 131.6 296.9 124.5 301.9 119.0 C 305.2 114.6 309.2 110.9 313.1 107.0 Z" />
<path fill="#000000" stroke="#000000" stroke-width="0.09375" d=" M 403.6 111.1 C 403.1 107.5 406.1 105.7 409.2 105.6 C 413.4 108.2 418.6 109.3 422.0 113.0 C 429.8 120.0 432.2 131.0 431.7 141.0 C 432.0 150.9 429.5 160.7 425.8 169.8 C 423.2 176.5 418.5 182.1 413.6 187.2 C 423.8 197.4 434.0 207.6 445.0 216.9 C 450.1 221.9 455.4 226.7 460.1 232.1 C 459.5 231.9 458.4 231.5 457.8 231.3 C 452.4 229.2 447.1 226.3 443.3 221.8 C 432.0 211.6 420.4 201.8 410.4 190.4 C 405.6 192.8 401.6 196.3 396.7 198.3 C 407.8 201.7 416.9 210.2 422.6 220.1 C 426.6 227.4 429.6 235.2 431.1 243.3 C 437.7 240.2 444.9 238.2 450.8 233.8 C 451.9 233.0 453.1 232.6 454.4 232.3 C 454.4 232.9 454.4 234.3 454.3 235.0 C 451.1 237.2 448.1 239.7 444.9 242.0 C 440.6 244.4 436.0 246.3 431.5 248.3 C 430.8 254.6 427.9 260.3 424.5 265.5 C 416.5 275.6 405.1 282.6 393.2 287.3 C 390.7 288.0 388.2 287.9 385.7 287.7 C 392.1 281.4 400.6 278.1 407.8 272.8 C 415.2 267.3 422.1 260.3 424.6 251.1 C 425.6 246.0 424.4 240.8 422.8 236.0 C 420.6 229.4 417.8 223.0 413.6 217.5 C 407.6 210.2 399.7 203.8 390.0 202.8 C 383.1 201.8 375.8 203.2 369.9 206.9 C 366.8 208.6 363.3 209.4 360.3 211.3 C 356.5 214.0 352.7 217.1 350.1 221.0 C 347.3 225.2 344.6 229.4 340.9 232.9 C 339.4 232.0 339.3 230.5 339.6 228.9 C 343.5 221.7 347.7 214.1 354.8 209.6 C 358.1 207.0 362.3 206.0 365.3 203.1 C 368.6 200.2 372.9 199.2 377.0 198.0 C 382.4 196.3 388.2 196.4 393.7 197.5 C 398.0 193.3 403.3 190.5 408.1 187.1 C 413.8 181.6 419.1 175.3 422.1 167.9 C 425.6 159.0 427.8 149.6 427.3 140.0 C 427.9 130.4 424.9 120.0 416.8 114.2 C 414.0 111.7 410.0 111.8 406.4 111.9 L 405.8 112.0 C 405.3 111.8 404.2 111.3 403.6 111.1 Z" />
<path fill="#9cd4be" stroke="#9cd4be" stroke-width="0.09375" d=" M 371.3 111.6 C 374.6 118.5 378.4 125.2 381.8 132.0 C 384.7 139.2 387.3 146.4 391.0 153.1 C 386.8 157.3 382.5 161.4 377.2 164.1 C 374.4 165.5 371.9 167.4 369.4 169.2 C 367.1 164.1 366.7 158.5 365.6 153.0 C 364.0 141.0 371.5 130.0 369.9 118.0 C 369.3 115.7 370.0 113.5 371.3 111.6 Z" />
<path fill="#9cd4be" stroke="#9cd4be" stroke-width="0.09375" d=" M 406.4 111.9 C 410.0 111.8 414.0 111.7 416.8 114.2 C 424.9 120.0 427.9 130.4 427.3 140.0 C 427.8 149.6 425.6 159.0 422.1 167.9 C 419.1 175.3 413.8 181.6 408.1 187.1 C 403.3 190.5 398.0 193.3 393.7 197.5 C 388.2 196.4 382.4 196.3 377.0 198.0 C 386.3 189.6 394.1 179.7 402.5 170.5 C 409.3 164.5 413.3 155.8 414.5 146.9 C 415.4 138.4 416.7 129.2 412.8 121.2 C 411.3 117.7 408.3 115.2 406.4 111.9 Z" />
<path fill="#ffffff" stroke="#ffffff" stroke-width="0.09375" d=" M 323.9 116.5 C 327.6 116.3 330.9 114.4 334.4 113.2 C 336.3 115.8 338.2 118.4 340.0 120.9 C 340.6 121.8 341.2 122.6 341.8 123.5 L 342.2 123.6 C 343.1 124.8 344.1 126.0 345.0 127.2 C 344.0 126.7 343.1 126.2 342.2 125.7 C 337.3 123.6 332.3 121.3 327.0 120.4 C 323.3 119.9 319.5 120.2 315.8 120.5 C 318.2 118.7 320.7 116.7 323.9 116.5 Z" />
<path fill="#ffffff" stroke="#ffffff" stroke-width="0.09375" d=" M 313.3 127.0 C 319.3 123.4 326.3 125.4 332.8 125.6 C 336.3 127.2 339.5 129.1 343.0 130.8 C 344.8 138.3 343.2 146.2 339.4 152.9 C 337.3 150.8 334.7 149.3 331.9 148.3 C 327.6 146.9 323.6 143.7 318.9 144.3 C 314.7 144.9 310.8 146.9 307.9 149.9 C 308.2 145.1 306.7 139.8 309.4 135.6 C 311.1 132.9 311.8 129.7 313.3 127.0 Z" />
<path fill="#9cd4be" stroke="#9cd4be" stroke-width="0.09375" d=" M 295.3 148.4 C 300.1 141.5 302.6 133.1 308.4 126.8 C 306.9 132.3 302.7 137.1 303.2 143.0 C 303.2 153.2 302.7 164.1 308.0 173.2 C 307.7 172.7 307.1 171.9 306.9 171.4 C 305.3 167.5 300.8 168.1 297.4 167.8 C 293.4 169.7 288.9 168.7 284.7 168.9 C 285.8 165.5 288.7 163.2 290.1 160.0 C 292.0 156.2 292.9 152.0 295.3 148.4 Z" />
<path fill="#9cd4be" stroke="#9cd4be" stroke-width="0.09375" d=" M 343.0 130.8 C 347.8 131.7 351.2 135.5 352.7 140.0 C 352.9 146.1 351.3 152.1 350.1 158.0 C 346.8 155.7 343.1 154.4 339.4 152.9 C 343.2 146.2 344.8 138.3 343.0 130.8 Z" />
<path fill="#000000" stroke="#000000" stroke-width="0.09375" d=" M 312.6 133.8 C 314.6 133.0 316.7 132.6 318.7 133.6 C 318.4 135.9 318.2 140.1 314.8 139.4 C 312.4 138.4 312.1 136.0 312.6 133.8 Z" />
<path fill="#000000" stroke="#000000" stroke-width="0.09375" d=" M 334.1 135.2 C 336.8 134.4 339.9 137.3 338.6 140.0 C 337.5 141.9 335.0 142.2 333.1 142.7 C 330.9 142.7 331.7 140.3 331.6 138.9 C 331.2 137.2 332.4 135.5 334.1 135.2 Z" />
<path fill="#ffffff" stroke="#ffffff" stroke-width="0.09375" d=" M 307.7 152.3 C 313.1 152.4 317.5 147.0 322.9 149.3 C 328.1 151.6 333.7 153.1 338.9 155.3 C 337.2 160.4 336.0 165.7 333.3 170.4 C 331.8 173.1 330.4 175.9 329.0 178.7 C 324.4 178.1 319.7 177.4 315.0 177.5 C 313.4 172.8 310.4 168.7 309.3 163.9 C 308.7 160.0 308.3 156.2 307.7 152.3 Z" />
<path fill="#9cd4be" stroke="#9cd4be" stroke-width="0.09375" d=" M 353.1 164.8 C 354.2 159.5 355.0 154.2 356.0 148.9 C 358.9 156.6 362.2 164.2 363.5 172.3 C 361.8 174.0 360.0 175.7 358.2 177.4 C 360.2 176.9 362.2 176.3 364.3 175.9 C 365.7 180.2 366.0 185.3 369.5 188.5 C 370.0 185.0 369.7 181.4 369.0 177.9 C 370.6 181.5 370.4 185.5 369.6 189.3 C 367.5 188.0 366.1 186.0 364.9 183.9 C 364.9 183.7 364.8 183.3 364.7 183.1 C 361.6 186.2 359.0 189.8 356.5 193.4 C 357.0 185.8 352.5 179.7 349.1 173.4 C 352.7 169.9 357.5 167.5 360.6 163.6 C 358.0 163.0 355.5 164.2 353.1 164.8 Z" />
<path fill="#9cd4be" stroke="#9cd4be" stroke-width="0.09375" d=" M 338.9 155.3 C 342.3 157.6 346.0 159.4 349.5 161.5 C 348.8 164.2 349.3 167.9 346.6 169.6 C 342.2 172.8 337.8 176.3 332.9 178.6 C 326.9 179.0 320.8 178.7 315.0 177.5 C 319.7 177.4 324.4 178.1 329.0 178.7 C 330.4 175.9 331.8 173.1 333.3 170.4 C 336.0 165.7 337.2 160.4 338.9 155.3 Z" />
<path fill="#000000" stroke="#000000" stroke-width="0.09375" d=" M 60.9 158.6 C 63.8 160.5 66.5 162.6 69.2 164.8 C 74.4 170.1 81.2 173.3 87.4 177.4 C 102.6 185.4 118.8 191.7 135.9 194.5 C 144.3 195.3 152.6 197.4 161.0 198.1 C 168.9 198.0 176.6 200.4 184.5 200.4 C 185.5 198.1 186.1 195.8 186.7 193.4 C 184.3 195.4 180.9 194.5 178.0 194.7 C 173.3 195.1 168.7 193.7 164.0 193.8 C 156.9 194.1 150.1 191.6 143.0 191.1 C 125.8 188.2 109.4 182.2 93.3 175.7 C 87.2 173.5 81.6 170.2 76.0 167.1 C 83.7 170.5 91.6 173.2 99.3 176.4 C 107.2 178.5 115.0 181.0 122.9 183.1 C 138.2 186.3 153.5 189.2 169.1 189.6 C 175.1 190.7 181.2 189.9 187.3 190.8 C 187.8 189.2 188.0 187.5 188.8 186.0 C 191.1 185.7 193.7 183.8 195.9 185.5 C 196.9 186.3 197.5 187.4 198.3 188.3 C 198.7 189.1 199.2 189.9 199.6 190.8 C 197.2 190.6 193.8 187.8 191.9 190.5 L 191.5 190.9 C 191.4 192.8 191.5 194.8 191.1 196.7 C 190.9 197.6 190.7 198.5 190.5 199.4 C 193.0 199.8 195.5 200.3 198.0 200.8 C 198.6 197.5 200.5 194.2 199.7 190.8 C 200.4 190.2 201.1 189.6 201.8 189.1 C 202.0 188.3 202.3 186.9 202.4 186.2 C 202.8 185.2 202.7 183.6 203.9 183.1 C 207.7 182.8 212.3 180.7 215.7 183.2 C 215.8 183.5 216.0 184.1 216.1 184.5 C 213.3 184.9 210.6 185.0 207.9 185.7 C 207.5 185.8 206.7 186.1 206.3 186.2 C 204.7 192.1 201.7 197.8 201.6 204.0 C 203.7 205.5 206.0 206.4 208.4 207.2 C 213.1 207.7 217.8 206.6 221.4 203.4 C 222.9 203.8 224.3 205.8 222.6 207.1 C 220.5 211.4 215.3 212.4 211.0 211.9 C 206.1 212.4 201.8 209.5 198.2 206.5 C 195.5 209.2 191.5 208.5 188.0 208.3 C 187.5 208.0 186.4 207.4 185.8 207.1 C 185.6 206.5 185.2 205.3 185.0 204.7 C 176.3 204.8 167.7 202.7 159.1 202.7 C 149.0 201.5 138.8 200.7 129.0 198.0 C 124.4 197.0 119.7 196.4 115.2 194.7 C 105.5 191.1 95.9 187.1 87.0 181.8 C 77.3 175.4 67.5 168.4 60.9 158.6 Z" />
<path fill="#ffffff" stroke="#ffffff" stroke-width="0.09375" d=" M 300.8 173.4 C 302.9 172.8 304.9 172.2 306.9 171.4 C 307.1 171.9 307.7 172.7 308.0 173.2 C 310.0 177.2 313.3 180.6 317.4 182.5 C 322.5 181.7 327.5 185.7 332.5 183.3 C 338.4 180.6 343.5 176.6 349.1 173.4 C 352.5 179.7 357.0 185.8 356.5 193.4 C 350.7 198.8 343.3 202.4 335.8 204.8 C 329.7 205.9 324.0 202.0 319.0 198.9 C 311.1 192.0 305.1 183.0 300.8 173.4 Z" />
<path fill="#9cd4be" stroke="#9cd4be" stroke-width="0.09375" d=" M 215.3 181.5 C 215.8 180.7 216.3 179.8 216.8 178.9 C 217.5 183.0 216.7 187.0 216.5 191.0 C 216.3 195.6 219.7 199.2 222.6 202.5 C 222.3 202.7 221.7 203.2 221.4 203.4 C 217.8 206.6 213.1 207.7 208.4 207.2 C 210.8 204.4 214.0 202.0 215.4 198.5 C 216.0 194.2 215.6 189.7 215.9 185.3 C 213.2 185.4 210.5 185.5 207.9 185.7 C 210.6 185.0 213.3 184.9 216.1 184.5 C 216.0 184.1 215.8 183.5 215.7 183.2 C 212.3 180.7 207.7 182.8 203.9 183.1 C 207.5 181.5 211.4 181.2 215.3 181.5 Z" />
<path fill="#ffffff" stroke="#ffffff" stroke-width="0.09375" d=" M 207.9 185.7 C 210.5 185.5 213.2 185.4 215.9 185.3 C 215.6 189.7 216.0 194.2 215.4 198.5 C 214.0 202.0 210.8 204.4 208.4 207.2 C 206.0 206.4 203.7 205.5 201.6 204.0 C 201.7 197.8 204.7 192.1 206.3 186.2 C 206.7 186.1 207.5 185.8 207.9 185.7 Z" />
<path fill="#9cd4be" stroke="#9cd4be" stroke-width="0.09375" d=" M 198.3 188.3 C 199.8 187.8 201.1 187.1 202.4 186.2 C 202.3 186.9 202.0 188.3 201.8 189.1 C 201.1 189.6 200.4 190.2 199.7 190.8 C 200.5 194.2 198.6 197.5 198.0 200.8 C 195.5 200.3 193.0 199.8 190.5 199.4 C 190.7 198.5 190.9 197.6 191.1 196.7 C 192.9 196.6 194.7 196.5 196.5 196.4 C 197.3 195.5 198.1 194.6 198.8 193.8 C 197.6 192.3 196.5 190.9 195.0 189.7 C 193.9 189.9 192.9 190.1 191.9 190.5 C 193.8 187.8 197.2 190.6 199.6 190.8 C 199.2 189.9 198.7 189.1 198.3 188.3 Z" />
<path fill="#ffffff" stroke="#ffffff" stroke-width="0.09375" d=" M 191.9 190.5 C 192.9 190.1 193.9 189.9 195.0 189.7 C 196.5 190.9 197.6 192.3 198.8 193.8 C 198.1 194.6 197.3 195.5 196.5 196.4 C 194.7 196.5 192.9 196.6 191.1 196.7 C 191.5 194.8 191.4 192.8 191.5 190.9 L 191.9 190.5 Z" />
<path fill="#9cd4be" stroke="#9cd4be" stroke-width="0.09375" d=" M 283.0 193.1 C 284.8 191.5 287.0 189.5 289.5 190.9 L 289.8 191.8 C 290.5 195.1 293.1 197.6 293.3 201.0 C 294.2 205.1 293.6 209.3 291.9 213.0 C 287.9 212.9 284.9 215.5 281.7 217.5 C 276.5 216.9 271.2 217.8 266.0 217.2 C 258.2 216.5 250.0 217.4 242.8 214.1 C 238.4 212.2 234.5 209.4 231.0 206.2 C 237.4 206.0 243.7 207.3 250.1 206.6 C 261.9 204.9 273.9 201.1 283.0 193.1 Z" />
<path fill="#9cd4be" stroke="#9cd4be" stroke-width="0.09375" d=" M 396.7 198.3 C 401.6 196.3 405.6 192.8 410.4 190.4 C 420.4 201.8 432.0 211.6 443.3 221.8 C 447.1 226.3 452.4 229.2 457.8 231.3 C 456.6 232.5 455.5 233.7 454.3 235.0 C 454.4 234.3 454.4 232.9 454.4 232.3 C 453.1 232.6 451.9 233.0 450.8 233.8 C 444.9 238.2 437.7 240.2 431.1 243.3 C 429.6 235.2 426.6 227.4 422.6 220.1 C 416.9 210.2 407.8 201.7 396.7 198.3 Z" />
<path fill="#000000" stroke="#000000" stroke-width="0.09375" d=" M 293.3 201.0 C 293.1 197.6 290.5 195.1 289.8 191.8 C 290.0 192.1 290.5 192.7 290.8 193.0 C 295.0 195.9 297.3 201.0 297.7 205.9 C 298.4 212.1 295.1 217.6 292.2 222.7 C 294.2 222.6 296.1 222.4 298.1 222.4 C 292.9 225.8 287.1 228.1 281.2 230.2 C 271.9 234.6 261.9 237.5 253.1 243.0 C 245.6 246.8 238.4 251.3 231.1 255.4 C 228.0 257.0 225.7 259.6 222.9 261.6 C 220.2 263.4 217.3 265.0 214.7 266.9 C 206.9 273.0 197.0 276.4 190.8 284.4 C 197.5 285.9 204.4 288.0 211.4 287.4 C 217.0 287.6 222.5 286.6 227.7 284.5 C 224.7 281.7 222.3 278.3 220.3 274.7 C 219.0 272.3 217.4 269.4 219.1 266.8 C 220.5 269.1 222.2 271.0 223.8 273.1 C 226.5 277.3 229.7 281.3 234.3 283.6 C 242.0 289.3 252.2 291.2 261.6 289.4 C 271.2 287.4 280.3 284.1 289.4 280.5 C 296.5 277.5 304.2 277.6 311.5 275.5 C 321.5 272.8 332.3 272.9 342.1 276.5 C 338.1 271.9 334.0 267.3 328.7 264.2 C 326.7 263.2 325.1 261.6 324.8 259.3 C 328.5 260.1 332.2 261.5 335.2 263.8 C 342.5 269.5 349.2 277.2 349.9 286.9 C 349.2 286.8 347.7 286.6 346.9 286.5 C 346.4 285.2 346.0 283.9 345.6 282.6 C 339.7 281.4 334.2 278.4 328.2 277.9 C 319.5 278.7 310.6 279.5 302.4 282.6 C 298.5 283.9 294.3 283.9 290.5 285.3 C 281.3 289.6 271.7 292.8 261.9 295.3 C 257.0 296.6 251.9 296.3 246.9 295.8 C 240.7 294.6 235.4 291.1 230.4 287.5 C 230.4 287.9 230.4 288.8 230.4 289.2 C 224.1 290.9 217.5 291.7 211.1 293.2 C 204.2 294.5 197.0 293.8 190.4 291.3 C 187.5 288.9 184.0 285.7 185.4 281.6 C 186.1 281.5 187.6 281.4 188.3 281.4 C 193.9 275.8 200.2 271.2 207.1 267.4 C 215.6 261.7 223.4 255.1 232.5 250.3 C 236.5 248.4 240.0 245.7 243.9 243.7 C 251.0 240.3 257.7 235.8 265.1 233.1 C 271.8 230.6 278.3 227.6 284.9 225.1 C 288.6 222.0 289.8 217.1 291.9 213.0 C 293.6 209.3 294.2 205.1 293.3 201.0 Z" />
<path fill="#9cd4be" stroke="#9cd4be" stroke-width="0.09375" d=" M 390.0 202.8 C 399.7 203.8 407.6 210.2 413.6 217.5 C 417.8 223.0 420.6 229.4 422.8 236.0 C 424.4 240.8 425.6 246.0 424.6 251.1 C 422.1 260.3 415.2 267.3 407.8 272.8 C 400.6 278.1 392.1 281.4 385.7 287.7 C 388.2 287.9 390.7 288.0 393.2 287.3 C 392.3 288.2 391.5 289.1 390.6 290.0 L 390.5 289.3 L 390.4 288.5 C 383.8 289.9 377.1 289.6 370.4 289.6 C 370.7 291.2 370.2 293.3 372.0 294.1 C 373.8 295.0 375.9 295.1 377.9 295.5 C 371.7 299.7 364.7 302.6 357.1 303.3 C 359.8 300.2 363.5 298.2 366.4 295.3 C 368.3 293.5 367.7 290.5 368.1 288.1 C 364.6 287.1 361.1 286.1 357.6 285.4 C 358.0 284.9 358.9 284.1 359.3 283.6 C 354.7 282.4 351.0 285.4 348.6 288.9 C 348.0 288.1 347.5 287.3 346.9 286.5 C 347.7 286.6 349.2 286.8 349.9 286.9 C 349.2 277.2 342.5 269.5 335.2 263.8 C 332.2 261.5 328.5 260.1 324.8 259.3 C 325.1 261.6 326.7 263.2 328.7 264.2 C 334.0 267.3 338.1 271.9 342.1 276.5 C 332.3 272.9 321.5 272.8 311.5 275.5 C 304.2 277.6 296.5 277.5 289.4 280.5 C 280.3 284.1 271.2 287.4 261.6 289.4 C 252.2 291.2 242.0 289.3 234.3 283.6 C 229.7 281.3 226.5 277.3 223.8 273.1 C 230.2 277.0 237.5 279.2 245.0 279.1 C 252.0 278.5 258.3 275.2 264.6 272.4 C 273.1 269.6 280.0 263.7 288.3 260.4 C 292.1 259.0 295.6 257.0 299.3 255.3 C 303.6 253.3 308.5 253.8 313.1 253.0 C 318.4 252.1 323.6 250.0 329.0 250.2 C 335.1 251.5 341.0 253.5 346.3 256.7 C 351.1 259.2 355.4 262.9 360.9 263.8 C 368.8 265.5 377.9 265.5 384.8 260.8 C 390.3 257.4 394.5 252.5 399.2 248.1 C 404.9 242.8 406.0 234.4 405.6 227.0 C 405.6 220.9 402.0 215.8 399.4 210.6 C 397.5 206.8 393.8 204.4 390.0 202.8 Z" />
<path fill="#000000" stroke="#000000" stroke-width="0.09375" d=" M 316.3 218.3 C 318.5 216.5 321.1 215.1 324.0 215.3 C 325.9 217.3 326.4 221.1 329.8 221.0 C 329.6 223.1 328.2 224.7 327.0 226.3 C 325.5 225.5 324.0 224.7 322.5 223.9 C 323.1 223.0 323.7 222.0 324.4 221.1 C 323.8 220.2 323.2 219.3 322.6 218.5 C 320.8 219.7 319.0 220.7 317.1 221.8 C 317.5 222.4 318.2 223.6 318.6 224.2 C 317.1 224.9 315.6 225.6 314.3 226.5 C 315.6 228.0 315.6 229.9 315.6 231.7 C 313.2 230.9 311.0 229.9 308.8 228.7 C 310.0 226.7 312.8 225.1 311.2 222.6 C 312.7 221.9 314.1 221.2 315.6 220.6 C 315.5 220.1 315.4 218.9 315.3 218.4 C 315.8 218.9 317.1 220.7 317.7 219.5 C 317.4 219.2 316.7 218.6 316.3 218.3 Z" />
<path fill="#000000" stroke="#000000" stroke-width="0.09375" d=" M 317.0 228.7 C 318.8 227.6 320.9 227.4 322.9 227.1 C 322.7 227.7 322.4 228.7 322.2 229.3 C 326.0 230.7 326.0 225.7 329.5 226.3 C 329.5 227.9 329.5 229.6 329.5 231.3 C 328.9 231.5 327.8 232.0 327.2 232.2 C 325.7 232.0 324.2 231.8 322.7 231.6 C 322.3 232.2 321.4 233.4 320.9 234.0 C 319.4 232.4 318.2 230.5 317.0 228.7 Z" />
<path fill="#000000" stroke="#000000" stroke-width="0.09375" d=" M 207.7 247.5 C 209.6 245.5 211.4 241.9 214.7 243.6 C 214.0 249.0 208.8 251.8 205.9 255.9 C 200.9 262.5 194.2 267.7 187.6 272.6 C 182.2 277.0 175.3 278.7 169.7 282.7 C 166.2 284.5 162.6 286.1 158.9 287.5 C 155.6 287.9 152.0 286.2 150.5 283.1 C 149.1 276.6 154.9 271.8 158.2 267.0 C 147.8 270.5 137.8 275.1 127.9 280.1 C 124.9 282.1 120.3 280.5 120.4 276.5 C 114.6 278.7 108.7 280.5 103.0 283.1 C 98.9 283.9 94.2 284.5 90.3 282.8 C 88.0 279.9 84.2 278.0 83.3 274.2 C 86.5 275.2 89.0 277.7 92.4 278.4 C 95.5 279.0 98.8 279.6 102.0 278.7 C 106.1 278.0 108.9 274.3 112.9 273.3 C 115.9 272.6 118.9 271.7 122.0 271.4 C 124.1 271.1 125.0 273.1 125.9 274.6 C 128.2 273.4 130.5 272.2 133.0 271.3 C 143.0 267.9 152.2 262.5 162.0 258.7 C 164.3 257.6 166.3 259.0 167.7 260.7 C 167.1 268.7 159.7 273.6 156.9 280.7 C 160.8 282.3 164.1 279.2 167.5 277.7 C 174.0 274.1 181.1 271.6 186.9 266.8 C 195.0 261.8 201.5 254.7 207.7 247.5 Z" />
<path fill="#9cd4be" stroke="#9cd4be" stroke-width="0.09375" d=" M 220.3 274.7 C 222.3 278.3 224.7 281.7 227.7 284.5 C 222.5 286.6 217.0 287.6 211.4 287.4 C 213.5 285.2 216.7 283.9 218.0 281.0 C 219.0 279.0 219.6 276.8 220.3 274.7 Z" />
<path fill="#000000" stroke="#000000" stroke-width="0.09375" d=" M 67.5 277.5 C 70.3 276.7 73.2 276.5 76.1 276.7 C 78.0 277.4 78.2 279.8 77.1 281.2 C 71.9 282.5 66.6 280.7 61.7 279.1 C 61.4 278.8 60.7 278.2 60.4 277.9 C 62.7 277.3 65.1 277.2 67.5 277.5 Z" />
<path fill="#000000" stroke="#000000" stroke-width="0.09375" d=" M 41.3 279.3 C 45.0 278.2 49.4 278.5 52.2 281.5 C 48.6 282.1 44.9 282.7 41.3 281.7 C 41.3 281.1 41.3 279.9 41.3 279.3 Z" />
<path fill="#000000" stroke="#000000" stroke-width="0.09375" d=" M 348.6 288.9 C 351.0 285.4 354.7 282.4 359.3 283.6 C 358.9 284.1 358.0 284.9 357.6 285.4 C 353.5 289.8 349.3 294.1 346.3 299.4 C 349.2 302.2 353.0 303.9 357.1 303.3 C 364.7 302.6 371.7 299.7 377.9 295.5 C 375.9 295.1 373.8 295.0 372.0 294.1 C 370.2 293.3 370.7 291.2 370.4 289.6 C 377.1 289.6 383.8 289.9 390.4 288.5 L 390.5 289.3 C 389.8 293.7 385.3 295.0 381.5 295.3 C 381.1 296.5 380.6 297.7 380.2 298.9 C 376.8 300.8 373.8 303.6 370.1 304.9 C 365.4 305.9 361.0 308.2 356.0 307.8 C 350.7 308.3 346.0 305.2 342.5 301.4 C 342.6 299.1 341.8 296.5 343.4 294.6 C 345.0 292.6 347.0 290.9 348.6 288.9 Z" />
<path fill="#ffffff" stroke="#ffffff" stroke-width="0.09375" d=" M 346.3 299.4 C 349.3 294.1 353.5 289.8 357.6 285.4 C 361.1 286.1 364.6 287.1 368.1 288.1 C 367.7 290.5 368.3 293.5 366.4 295.3 C 363.5 298.2 359.8 300.2 357.1 303.3 C 353.0 303.9 349.2 302.2 346.3 299.4 Z" />
</svg>
